<?xml version="1.0" encoding="utf-8"?>
<!-- Generator: Adobe Illustrator 16.0.0, SVG Export Plug-In . SVG Version: 6.00 Build 0)  -->
<!DOCTYPE svg PUBLIC "-//W3C//DTD SVG 1.1//EN" "http://www.w3.org/Graphics/SVG/1.1/DTD/svg11.dtd">
<svg version="1.1" id="Layer_1" xmlns="http://www.w3.org/2000/svg" xmlns:xlink="http://www.w3.org/1999/xlink" x="0px" y="0px"
	 width="230px" height="50px" viewBox="0 0 230 50" enable-background="new 0 0 230 50" xml:space="preserve">
<g>
	<g>
		<text transform="matrix(0.9446 0 0 1 58.0732 43.1738)"><tspan x="0" y="0" fill="#FFFFFF" font-family="'ArialMT'" font-size="9.9738" letter-spacing="12.704">B</tspan><tspan x="19.619" y="0" fill="#FFFFFF" font-family="'ArialMT'" font-size="9.9738" letter-spacing="12.704">L</tspan><tspan x="38.121" y="0" fill="#FFFFFF" font-family="'ArialMT'" font-size="9.9738" letter-spacing="12.704">I</tspan><tspan x="53.859" y="0" fill="#FFFFFF" font-family="'ArialMT'" font-size="9.9738" letter-spacing="12.704">ND</tspan><tspan x="94.176" y="0" fill="#FFFFFF" font-family="'ArialMT'" font-size="9.9738" letter-spacing="12.704">AGE</tspan><tspan x="154.137" y="0" fill="#FFFFFF" font-family="'ArialMT'" font-size="9.9738" letter-spacing="12.704">N</tspan><tspan x="174.295" y="0" fill="#FFFFFF" font-family="'ArialMT'" font-size="9.9738">S</tspan></text>
		<rect x="57.618" y="28.689" fill="#F16724" width="171.285" height="1.258"/>
		<path fill="#FFFFFF" d="M75.111,1.967h3.839l8.171,14.791l8.148-14.791h3.616L88.509,20.349c-0.181,0.337-0.396,0.599-0.644,0.794
			c-0.247,0.193-0.537,0.289-0.867,0.289c-0.346,0-0.644-0.096-0.891-0.289c-0.248-0.195-0.463-0.457-0.644-0.794L75.111,1.967z"/>
		<path fill="#FFFFFF" d="M106.639,21.17c-1.256,0-2.415-0.254-3.48-0.754c-1.065-0.504-1.99-1.188-2.774-2.061
			c-0.784-0.873-1.395-1.906-1.833-3.103c-0.438-1.197-0.655-2.493-0.655-3.884c0-1.408,0.218-2.695,0.655-3.857
			c0.438-1.16,1.049-2.152,1.833-2.971c0.784-0.817,1.709-1.453,2.774-1.902c1.065-0.448,2.224-0.672,3.48-0.672h4.383
			c1.304,0,2.497,0.228,3.579,0.685c1.082,0.46,2.01,1.103,2.785,1.931c0.776,0.827,1.379,1.816,1.809,2.973
			c0.429,1.151,0.643,2.425,0.643,3.814c0,1.391-0.219,2.687-0.655,3.884c-0.438,1.196-1.049,2.229-1.833,3.103
			c-0.785,0.872-1.714,1.557-2.787,2.061c-1.073,0.5-2.253,0.754-3.541,0.754H106.639z M111.021,17.814
			c0.826,0,1.585-0.158,2.278-0.477c0.693-0.316,1.292-0.751,1.797-1.307c0.503-0.555,0.895-1.218,1.175-1.994
			c0.281-0.773,0.421-1.611,0.421-2.509c0-0.899-0.14-1.73-0.421-2.497c-0.281-0.765-0.672-1.422-1.175-1.967
			c-0.505-0.547-1.104-0.973-1.797-1.281s-1.452-0.461-2.278-0.461h-4.383c-0.81,0-1.556,0.152-2.241,0.461
			c-0.686,0.309-1.275,0.734-1.771,1.281c-0.495,0.545-0.883,1.197-1.163,1.955c-0.281,0.758-0.422,1.592-0.422,2.509
			c0,0.897,0.141,1.735,0.422,2.509c0.28,0.776,0.668,1.439,1.163,1.994c0.496,0.556,1.086,0.99,1.771,1.307
			c0.685,0.318,1.432,0.477,2.241,0.477H111.021z"/>
		<polygon fill="#FFFFFF" points="122.389,21.17 122.389,1.967 125.534,1.967 125.534,17.814 137.644,17.814 137.644,21.17 		"/>
		<path fill="#FFFFFF" d="M155.994,1.967h3.072v10.723c0,1.48-0.184,2.77-0.545,3.87c-0.363,1.101-0.934,2.011-1.71,2.735
			c-0.776,0.72-1.779,1.258-3.01,1.609c-1.229,0.353-2.72,0.527-4.469,0.527c-1.733,0-3.215-0.175-4.445-0.527
			c-1.23-0.352-2.232-0.89-3.01-1.609c-0.776-0.725-1.346-1.635-1.708-2.735c-0.363-1.101-0.545-2.39-0.545-3.87V1.967h3.243v10.723
			c0,0.969,0.112,1.795,0.336,2.484c0.223,0.687,0.585,1.25,1.089,1.688c0.504,0.44,1.176,0.763,2.019,0.964
			c0.842,0.203,1.881,0.306,3.121,0.306c1.238,0,2.278-0.103,3.12-0.306c0.843-0.201,1.515-0.523,2.02-0.964
			c0.503-0.438,0.866-1.002,1.09-1.688c0.223-0.689,0.333-1.516,0.333-2.484V1.967z"/>
		<polygon fill="#FFFFFF" points="167.684,21.17 167.684,5.322 160.849,5.322 160.849,1.967 177.664,1.967 177.664,5.322 
			170.828,5.322 170.828,21.17 		"/>
		<rect x="179.918" y="1.967" fill="#FFFFFF" width="3.145" height="19.203"/>
		<path fill="#FFFFFF" d="M194.578,21.17c-1.255,0-2.415-0.254-3.479-0.754c-1.066-0.504-1.991-1.188-2.773-2.061
			c-0.786-0.873-1.396-1.906-1.833-3.103c-0.439-1.197-0.658-2.493-0.658-3.884c0-1.408,0.219-2.695,0.658-3.857
			c0.437-1.16,1.047-2.152,1.833-2.971c0.783-0.817,1.708-1.453,2.773-1.902c1.064-0.448,2.224-0.672,3.479-0.672h4.383
			c1.305,0,2.498,0.228,3.58,0.685c1.082,0.46,2.01,1.103,2.787,1.931c0.774,0.827,1.378,1.816,1.808,2.973
			c0.428,1.151,0.644,2.425,0.644,3.814c0,1.391-0.219,2.687-0.657,3.884c-0.438,1.196-1.048,2.229-1.832,3.103
			c-0.785,0.872-1.712,1.557-2.787,2.061c-1.072,0.5-2.253,0.754-3.542,0.754H194.578z M198.961,17.814
			c0.827,0,1.586-0.158,2.28-0.477c0.693-0.316,1.291-0.751,1.794-1.307c0.503-0.555,0.895-1.218,1.176-1.994
			c0.281-0.773,0.421-1.611,0.421-2.509c0-0.899-0.14-1.73-0.421-2.497c-0.281-0.765-0.673-1.422-1.176-1.967
			c-0.504-0.547-1.102-0.973-1.794-1.281c-0.694-0.309-1.454-0.461-2.28-0.461h-4.383c-0.809,0-1.557,0.152-2.241,0.461
			c-0.685,0.309-1.274,0.734-1.771,1.281c-0.495,0.545-0.883,1.197-1.164,1.955c-0.281,0.758-0.422,1.592-0.422,2.509
			c0,0.897,0.141,1.735,0.422,2.509c0.281,0.776,0.668,1.439,1.164,1.994c0.496,0.556,1.085,0.99,1.771,1.307
			c0.685,0.318,1.433,0.477,2.241,0.477H198.961z"/>
		<path fill="#FFFFFF" d="M213.251,7.117V21.17h-2.997V3.737c0-0.618,0.145-1.106,0.434-1.468c0.288-0.359,0.681-0.541,1.176-0.541
			c0.231,0,0.454,0.053,0.669,0.159c0.214,0.104,0.437,0.282,0.668,0.528l12.705,13.444V1.809h2.997V19.4
			c0,0.633-0.146,1.126-0.433,1.479c-0.29,0.352-0.666,0.526-1.127,0.526c-0.513,0-0.991-0.235-1.437-0.712L213.251,7.117z"/>
		<polygon fill="#F16724" points="60.649,5.322 73.602,5.322 73.602,1.967 57.528,1.967 57.528,5.322 		"/>
		<polygon fill="#FFFFFF" points="62.952,12.822 72.933,12.822 73.625,12.822 73.625,9.996 72.933,9.996 62.952,9.996 60.649,9.996 
			60.649,10.004 57.528,10.004 57.528,12.822 57.528,21.17 73.625,21.17 73.625,17.814 60.649,17.814 60.649,12.822 		"/>
		<path fill-rule="evenodd" clip-rule="evenodd" fill="#FFFFFF" d="M46.015,1.793l0.156,30.791
			c-0.008,4.944-4.537,8.09-7.738,10.143c-1.714,1.098-10.743,5.472-13.787,5.292c-3.129-0.182-11.526-4.737-13.563-5.935
			c-3.449-2.031-7.479-4.898-7.45-9.829L3.672,1.926L46.015,1.793z M48.727,0L1.057,0.006c0.163,11.074-0.187,22.187,0,33.246
			c0.145,8.711,20.396,16.604,23.558,16.746c3.35,0.15,23.626-6.975,24.111-16.418C49.286,22.653,48.634,11.025,48.727,0"/>
		<path fill-rule="evenodd" clip-rule="evenodd" fill="#FFFFFF" d="M44.279,3.246L6.188,3.257C6.187,3.273,6.187,3.295,6.187,3.315
			H5.773L5.771,25.134L27.966,7.795l2.174,3.119L5.798,29.93l-0.027-0.043L5.77,31.916c-0.007,1.346,0.072,2.218,0.345,2.961
			L27.71,18.008l2.173,3.119L8.439,37.875c0.9,0.861,2.063,1.756,3.392,2.635l16.124-12.596l2.173,3.119L15.342,42.584
			c3.186,1.699,6.734,3.15,9.77,3.879v-0.107c3.206-0.796,6.967-2.371,10.256-4.19l2.302-1.365c1.736-1.104,3.23-2.247,4.282-3.323
			c1.96-2.007,2.35-2.686,2.333-5.631L44.279,3.246z"/>
	</g>
</g>
</svg>
