<?xml version="1.0" encoding="utf-8"?>
<!-- Generator: Adobe Illustrator 16.0.0, SVG Export Plug-In . SVG Version: 6.00 Build 0)  -->
<!DOCTYPE svg PUBLIC "-//W3C//DTD SVG 1.1//EN" "http://www.w3.org/Graphics/SVG/1.1/DTD/svg11.dtd">
<svg version="1.1" id="Layer_1" xmlns="http://www.w3.org/2000/svg" xmlns:xlink="http://www.w3.org/1999/xlink" x="0px" y="0px"
	 width="205px" height="100px" viewBox="0 0 205 100" enable-background="new 0 0 205 100" xml:space="preserve">
<g>
	<g>
		<path fill-rule="evenodd" clip-rule="evenodd" fill="#FFFFFF" d="M34.014,72.545c-2.202-0.245-4.455-0.347-6.736-0.347
			c-15.241,0-26.404,5.186-26.404,12.988c0,8.054,10.52,13.211,26.332,13.211c1.817,0,4.287-0.045,6.809-0.265
			c0-8.159-25.555,1.68-25.555-12.84C8.459,68.865,34.014,82.365,34.014,72.545z"/>
		<path fill="#FFFFFF" d="M34.921,97.811c16.244,0-2.401-21.87,17.817-21.508c5.872,0.104,7.727,3.036,7.727,8.775
			c0,9.362,1.09,13.262,6.728,12.732V83.198c0-6.604-4.223-10.56-13.668-10.56c-13.721,0-11.878,7.164-11.878-10.996h-6.725V97.811z
			"/>
		<path fill="#FFFFFF" d="M69.137,97.811c2.241,0,4.483,0,6.726,0V86.622c0-6.171,3.935-10.028,9.946-10.028
			c1.144,0,2.503,0.093,3.72,0.434c0-11.227-13.796,4.166-14.097-3.812h-6.296V97.811z"/>
		<path fill="#FFFFFF" d="M84.503,85.513c0,7.039,7.584,12.884,18.603,12.884c10.948,0,18.533-5.845,18.533-12.884
			c0-7.476-7.44-12.875-18.533-12.875C91.944,72.638,84.503,78.038,84.503,85.513L84.503,85.513z M91.66,85.513
			c0-4.678,4.22-9.21,11.446-9.21c7.155,0,11.378,4.532,11.378,9.21c0,4.389-3.506,9.21-11.378,9.21
			C95.164,94.723,91.66,89.902,91.66,85.513z"/>
		<path fill="#FFFFFF" d="M121.08,97.811h6.727V85.415c0-4.579,2.718-9.111,9.587-9.111c5.437,0,6.514,3.808,6.514,6.845v14.663
			h6.725V85.415c0-4.579,2.717-9.111,9.586-9.111c5.44,0,6.514,3.808,6.514,6.845v14.663c2.24,0,4.484,0,6.725,0V82.04
			c0-21.916-46.081,0.744-46.081-8.824h-6.296V97.811z"/>
		<path fill="#FFFFFF" d="M177.601,78.809c2.72-1.541,6.797-2.506,10.588-2.506c6.728,0,9.018,2.171,9.018,6.414
			c-2.648-0.098-4.507-0.098-7.155-0.098c-6.941,0-16.958,1.927-16.958,8.101c0,5.354,5.509,7.677,13.38,7.677
			c18.667,0,26.792-25.759,2.79-25.759c-4.652,0-8.66,0.965-12.021,2.313L177.601,78.809L177.601,78.809z M197.207,88.262
			c0,3.665-3.508,6.461-10.161,6.461c-3.078,0-6.797-1.397-6.797-4.003c0-4.338,9.015-4.727,12.664-4.727
			c1.432,0,2.861,0.099,4.294,0.099V88.262z"/>
	</g>
	<linearGradient id="SVGID_2_" gradientUnits="userSpaceOnUse" x1="92.7344" y1="53.6797" x2="113.5575" y2="-3.5314">
		<stop  offset="0" style="stop-color:#28605C"/>
		<stop  offset="0.4121" style="stop-color:#377774"/>
		<stop  offset="0.5444" style="stop-color:#3D8B85"/>
		<stop  offset="0.7114" style="stop-color:#429F97"/>
		<stop  offset="0.8673" style="stop-color:#44ADA3"/>
		<stop  offset="1" style="stop-color:#46B3A9"/>
	</linearGradient>
	<path fill-rule="evenodd" clip-rule="evenodd" fill="url(#SVGID_2_)" d="M128.061,1.748c1.444,14.22,2.09,34.125-8.674,45.527
		c-9.5,10.065-25.367,10.521-35.43,1.018c-10.203-9.631-10.447-25.951-0.569-35.895C90.069,5.968,102.872,0.646,128.061,1.748
		L128.061,1.748z M116.427,13.908c-8.943-8.442-23.042-8.038-31.484,0.903c-8.442,8.944-8.036,23.043,0.906,31.485
		c8.942,8.442,23.04,8.035,31.482-0.906C125.774,36.448,125.37,22.348,116.427,13.908z"/>
	<g>
		<path fill-rule="evenodd" clip-rule="evenodd" fill="#FFFFFF" d="M102.339,22.604c3.157,0.587,5.641,3.073,6.229,6.229h11.896
			c-0.635-9.713-8.409-17.473-18.125-18.089V22.604z"/>
		<path fill-rule="evenodd" clip-rule="evenodd" fill="#FFFFFF" d="M93.247,28.833c0.587-3.155,3.07-5.642,6.228-6.229V10.773
			c-9.541,0.79-17.122,8.473-17.749,18.06H93.247z"/>
		<path fill-rule="evenodd" clip-rule="evenodd" fill="#FFFFFF" d="M99.475,37.925c-3.158-0.586-5.641-3.072-6.228-6.228H81.749
			c0.763,9.449,8.284,16.98,17.726,17.764V37.925z"/>
		<path fill-rule="evenodd" clip-rule="evenodd" fill="#FFFFFF" d="M108.568,31.698c-0.588,3.155-3.072,5.641-6.229,6.228v11.563
			c9.617-0.609,17.331-8.218,18.102-17.79H108.568z"/>
	</g>
</g>
</svg>
